# xmcd CD database file
#
# Track frame offsets:
#	150
#	27200
#	50267
#	83412
#	103497
#	124540
#	146167
#	172525
#	187797
#	208332
#	235595
#
# Disc length: 3449 seconds
#
# Revision: 0
# Processed by: cddbd v1.5.1PL2 Copyright (c) Steve Scherf et al.
# Submitted via: cdripper 1,0,33,916
#
DISCID=850d770b
DTITLE=3d and beyond - Roosevelt Jazz
DYEAR=1900
DGENRE=Jazz
TTITLE0=Senor Blues
TTITLE1=Where or When
TTITLE2=Happy-Go-Lucky Local
TTITLE3=Isfahan
TTITLE4=Cottontail
TTITLE5=Dis Here
TTITLE6=Freckle Face
TTITLE7=Lonely Street
TTITLE8=Lullaby of the Leaves
TTITLE9=Bag of Dreams
TTITLE10=I Thought About You
EXTD=
EXTT0=
EXTT1=
EXTT2=
EXTT3=
EXTT4=
EXTT5=
EXTT6=
EXTT7=
EXTT8=
EXTT9=
EXTT10=
PLAYORDER=
